# xmcd CD database file
#
# Track frame offsets:
#	150
#	27453
#	58062
#	80632
#	138826
#	169898
#	200073
#	228341
#	245081
#	282910
#	313067
#
# Disc length: 4570 seconds
#
# Revision: 0
# Processed by: cddbd v1.5.1PL0 Copyright (c) Steve Scherf et al.
# Submitted via: CDex 1.51
#
DISCID=a311d80b
DTITLE=Pat Metheny Group - The PMG Companion, Volume 1 (1976 - 1980) 1/3
DYEAR=2005
DGENRE=Jazz
TTITLE0=Bright Size Life (Metheny)
TTITLE1=The Whopper (Metheny)
TTITLE2=Nacada (Metheny)
TTITLE3=There Will Never Be Another You (Harry Warren-Mack Gordon)
TTITLE4=Unquity Road (Metheny)
TTITLE5=Unity Village (Metheny)
TTITLE6=Missouri Uncompromised (Metheny)
TTITLE7=All The Things You Are (Jerome Kern-Oscar Hammerstein)
TTITLE8=Unidentified #1
TTITLE9=On Green Dolphin Street (Ned Washington-Bronislau Kaper)
TTITLE10=Unidentified #2
EXTD=YEAR: 2005
EXTT0=
EXTT1=
EXTT2=
EXTT3=
EXTT4=
EXTT5=
EXTT6=
EXTT7=
EXTT8=
EXTT9=
EXTT10=
PLAYORDER=
